#N canvas 159 77 1045 644 10;
#X obj 143 100 noise~;
#X floatatom 301 276 0 0 0 0 - - -;
#X obj 159 300 vline~;
#X obj 325 155 expr 1000 / $f1;
#X text 278 274 ms;
#X obj 144 332 *~;
#X obj 430 622 *~;
#X obj 445 596 *~;
#X obj 430 654 delwrite~ \$0-Kp 1000;
#X obj 143 128 expr~ if($v1 > 0 \, 1 \, -1);
#X obj 445 560 line~;
#X floatatom 445 515 5 0 0 0 - - -, f 5;
#X msg 445 537 \$1 10;
#X text 468 495 feedback;
#X floatatom 325 130 12 0 0 0 - - -, f 12;
#X text 404 129 Freq;
#X obj 652 549 line~;
#X floatatom 651 506 0 0 0 0 - - -;
#X msg 652 526 \$1 10;
#X text 696 483 blend;
#X obj 499 525 noise~;
#X obj 499 549 expr~ $v1 * 0.5 + 0.5;
#X obj 499 573 expr~ if($v1 < $v2 \, 1 \, -1);
#X text 169 333 envelope;
#X text 194 101 entrada de ruído;
#X text 367 308 feedback delay;
#X text 559 654 feedback delay;
#X text 626 374 filtro média;
#X obj 430 372 fexpr~ ($x1[0] + $x1[-1]) * 0.5;
#X obj 445 401 r KP-Feedback;
#X obj 651 461 r KP-Blend;
#X obj 458 148 / 127;
#X obj 341 33 r KPvoice-\$1;
#X obj 414 95 unpack f f;
#X obj 445 429 clip 0 1;
#X obj 445 451 sqrt;
#X obj 568 100 loadbang;
#X msg 568 122 \; KP-Feedback 0.8 \; KP-Blend 1;
#X obj 439 38 pack f 127;
#X obj 439 16 inlet Freq;
#X obj 517 12 inlet velocity;
#X obj 77 526 outlet~;
#X obj 362 219 pack f f;
#X obj 325 177 t f f;
#X msg 159 277 \$2 \, 0 0 \$1;
#X obj 301 307 vd~ \$0-Kp;
#X obj 458 191 pow 2;
#X connect 0 0 9 0;
#X connect 1 0 45 0;
#X connect 2 0 5 1;
#X connect 3 0 43 0;
#X connect 5 0 28 0;
#X connect 6 0 8 0;
#X connect 7 0 6 1;
#X connect 9 0 5 0;
#X connect 10 0 7 0;
#X connect 11 0 12 0;
#X connect 12 0 10 0;
#X connect 14 0 3 0;
#X connect 16 0 22 1;
#X connect 17 0 18 0;
#X connect 18 0 16 0;
#X connect 20 0 21 0;
#X connect 21 0 22 0;
#X connect 22 0 7 1;
#X connect 28 0 6 0;
#X connect 29 0 34 0;
#X connect 30 0 17 0;
#X connect 31 0 46 0;
#X connect 32 0 33 0;
#X connect 33 0 14 0;
#X connect 33 1 31 0;
#X connect 34 0 35 0;
#X connect 35 0 11 0;
#X connect 36 0 37 0;
#X connect 38 0 33 0;
#X connect 39 0 38 0;
#X connect 40 0 38 1;
#X connect 42 0 44 0;
#X connect 43 0 1 0;
#X connect 43 1 42 0;
#X connect 44 0 2 0;
#X connect 45 0 41 0;
#X connect 45 0 28 0;
#X connect 46 0 42 1;
