#N canvas 88 176 824 487 10;
#X obj 81 378 outlet~;
#X obj 361 224 s;
#X obj 347 -16 inlet;
#X obj 376 192 makefilename KPvoice-%d;
#X obj 544 43 inlet;
#X obj 609 45 inlet;
#X obj 523 95 s KP-Feedback;
#X obj 614 85 s KP-Blend;
#X obj 347 11 stripnote;
#X obj 347 33 pack f f;
#X obj 374 82 f;
#X obj 376 114 + 1;
#X obj 376 162 + 1;
#X obj 347 55 t l b;
#X obj 376 140 mod 4;
#X obj 66 243 Karplux~ 1;
#X obj 97 338 Karplux~ 4;
#X obj 64 279 Karplux~ 2;
#X obj 68 307 Karplux~ 3;
#X connect 2 0 8 0;
#X connect 3 0 1 1;
#X connect 4 0 6 0;
#X connect 5 0 7 0;
#X connect 8 0 9 0;
#X connect 8 1 9 1;
#X connect 9 0 13 0;
#X connect 10 0 11 0;
#X connect 11 0 14 0;
#X connect 12 0 3 0;
#X connect 13 0 1 0;
#X connect 13 1 10 0;
#X connect 14 0 12 0;
#X connect 14 0 10 1;
#X connect 15 0 0 0;
#X connect 16 0 0 0;
#X connect 17 0 0 0;
#X connect 18 0 0 0;
