#N canvas 1 110 824 487 10;
#X obj 81 356 catch~ Kp~;
#X obj 81 378 outlet~;
#X obj 85 128 Karplux~ 1;
#X obj 303 369 s;
#X obj 349 216 pack f f;
#X obj 265 267 l;
#X obj 274 223 t b f;
#X obj 267 305 stripnote;
#X obj 319 123 inlet;
#X obj 267 347 pack f f;
#X obj 310 251 makefilename KPvoice-%d;
#X obj 319 152 poly 8 1;
#X obj 83 164 Karplux~ 2;
#X obj 87 192 Karplux~ 3;
#X obj 84 222 Karplux~ 4;
#X obj 165 164 Karplux~ 6;
#X obj 169 192 Karplux~ 7;
#X obj 167 128 Karplux~ 5;
#X obj 166 222 Karplux~ 8;
#X obj 443 121 inlet;
#X obj 508 123 inlet;
#X obj 422 173 s KP-Feedback;
#X obj 513 163 s KP-Blend;
#X connect 0 0 1 0;
#X connect 4 0 5 1;
#X connect 5 0 7 0;
#X connect 6 0 5 0;
#X connect 6 1 10 0;
#X connect 7 0 9 0;
#X connect 7 1 9 1;
#X connect 8 0 11 0;
#X connect 9 0 3 0;
#X connect 10 0 3 1;
#X connect 11 0 6 0;
#X connect 11 1 4 0;
#X connect 11 2 4 1;
#X connect 19 0 21 0;
#X connect 20 0 22 0;
